<svg xmlns="http://www.w3.org/2000/svg" width="200" height="200" viewBox="-100 -120 200 240" version="1.1" xmlns:xlink="http://www.w3.org/1999/xlink">
  <g transform="scale(1 ,1)">
    <path d="m-42.621 23.33 -0.17 -3.89 -0.106 -3.905 -0.043 -3.898 0.021 -3.89 0.078 -3.87 0.142 -3.855 0.207 -3.834 0.263 -3.791 0.319 -3.763 0.384 -3.713 0.433 -3.663 0.498 -3.606 0.554 -3.543 0.605 -3.478 0.661 -3.407 0.719 -3.336 0.762 -3.244 0.81 -3.166 0.861 -3.065 0.911 -2.974 0.954 -2.873 0.995 -2.767 1.032 -2.653 1.073 -2.546 1.109 -2.425 1.144 -2.311 1.181 -2.184 1.21 -2.063 1.238 -1.934 1.258 -1.8 1.288 -1.665 1.309 -1.536 1.331 -1.394 1.337 -1.252 1.359 -1.116 1.372 -0.974 1.38 -0.84 1.387 -0.691 1.394 -0.547 1.394 -0.405 1.394 -0.263 1.387 -0.121 1.387 0.021 1.38 0.164 1.366 0.299 1.359 0.433 1.344 0.577 1.323 0.711 1.309 0.84 1.281 0.967 1.266 1.096 1.238 1.223 1.21 1.344 1.181 1.458 1.144 1.579 1.116 1.686 1.073 1.792 1.045 1.899 1.003 1.999 0.967 2.091 0.918 2.184 0.881 2.27 0.832 2.347 0.79 2.425 0.739 2.496 0.696 2.561 0.64 2.625 0.597 2.675 0.541 2.731 0.491 2.767 0.441 2.809 0.384 2.845 0.334 2.873 0.284 2.895 0.22 2.909 0.177 2.916 0.114 2.923 0.064 2.923 0.015 2.916 -0.043 2.903 -0.099 2.88 -0.149 2.86 -0.2 2.832 -0.248 2.795 -0.306 2.759 -0.349 2.703 -0.405 2.66 -0.448 2.604 -0.498 2.539 -0.541 2.475 -0.59 2.404 -0.625 2.326 -0.668 2.248 -0.711 2.162 -0.754 2.078 -0.782 1.984 -0.818 1.885 -0.861 1.792 -0.881 1.678 -0.918 1.579 -0.939 1.465 -0.967 1.359 -0.995 1.238 -1.01 1.124 -1.032 1.003 -1.053 0.881 -1.06 0.762 -1.081 0.64 -1.081 0.506 -1.096 0.384 -1.103 0.256 -1.103 0.129h-1.106l-1.103 -0.129 -1.103 -0.256 -1.096 -0.384 -1.081 -0.506 -1.081 -0.64 -1.06 -0.762 -1.053 -0.881 -1.032 -1.003 -1.01 -1.124 -0.995 -1.238 -0.967 -1.359 -0.939 -1.465 -0.918 -1.579 -0.881 -1.678 -0.861 -1.792 -0.818 -1.885 -0.782 -1.984 -0.754 -2.078 -0.711 -2.162 -0.668 -2.248 -0.625 -2.326 -0.59 -2.404 -0.541 -2.475 -0.498 -2.539 -0.448 -2.604 -0.405 -2.66 -0.349 -2.703 -0.306 -2.759 -0.248 -2.795 -0.2 -2.832 -0.149 -2.86 -0.099 -2.88 -0.043 -2.903 0.015 -2.916 0.064 -2.923 0.114 -2.923 0.177 -2.916 0.22 -2.909 0.284 -2.895 0.336 -2.872 0.384 -2.845 0.441 -2.809 0.491 -2.767 0.541 -2.731 0.597 -2.675 0.64 -2.625 0.696 -2.561 0.739 -2.496 0.79 -2.425 0.832 -2.347 0.881 -2.27 0.918 -2.184 0.967 -2.091 1.003 -1.999 1.045 -1.899 1.073 -1.792 1.116 -1.686 1.144 -1.579 1.181 -1.458 1.21 -1.344 1.238 -1.223 1.266 -1.096 1.281 -0.967 1.309 -0.84 1.323 -0.711 1.344 -0.577 1.359 -0.433 1.366 -0.299 1.38 -0.164 1.387 -0.021 1.387 0.121 1.394 0.263 1.394 0.405 1.394 0.547 1.387 0.691 1.38 0.84 1.372 0.974 1.359 1.116 1.337 1.252 1.331 1.394 1.309 1.536 1.288 1.665 1.258 1.8 1.238 1.934 1.21 2.063 1.181 2.184 1.144 2.311 1.109 2.425 1.073 2.546 1.032 2.653 0.995 2.767 0.954 2.873 0.911 2.974 0.861 3.065 0.81 3.166 0.762 3.244 0.719 3.336 0.661 3.407 0.605 3.478 0.554 3.543 0.498 3.606 0.433 3.663 0.384 3.713 0.319 3.763 0.263 3.791 0.207 3.834 0.142 3.855 0.078 3.87 0.021 3.89 -0.043 3.898 -0.106 3.905 -0.17 3.89 -0.228 3.89 -0.291 3.87 -0.356 3.847 -0.42 3.819 -0.476 3.784 -0.534 3.741 -0.597 3.692 -0.661 3.649 -0.711 3.578 -0.775 3.521 -0.825 3.45 -0.881 3.379 -0.939 3.293 -0.989 3.201 -1.045 3.116 -1.088 3.022 -1.139 2.916 -1.187 2.809 -1.23 2.696 -1.273 2.589 -1.309 2.46 -1.351 2.341 -1.394 2.219 -1.422 2.078 -1.458 1.949 -1.486 1.814 -1.516 1.671 -1.544 1.529 -1.572 1.38 -1.587 1.238 -1.607 1.081 -1.622 0.932 -1.635 0.782 -1.643 0.625 -1.658 0.469 -1.665 0.313 -1.671 0.157H-0.832l-1.671 -0.157 -1.665 -0.313 -1.658 -0.469 -1.643 -0.625 -1.635 -0.782 -1.622 -0.932 -1.607 -1.081 -1.587 -1.238 -1.572 -1.38 -1.544 -1.529 -1.516 -1.671 -1.486 -1.814 -1.458 -1.949 -1.422 -2.078 -1.394 -2.219 -1.351 -2.341 -1.309 -2.46 -1.273 -2.589 -1.23 -2.696 -1.187 -2.809 -1.139 -2.916 -1.088 -3.022 -1.045 -3.116 -0.989 -3.201 -0.939 -3.293 -0.881 -3.379 -0.825 -3.45 -0.775 -3.521 -0.711 -3.578 -0.661 -3.649 -0.597 -3.692 -0.534 -3.741 -0.476 -3.784 -0.42 -3.819 -0.356 -3.847 -0.291 -3.87 -0.228 -3.89 -0.17 -3.89 -0.106 -3.905 -0.043 -3.898 0.021 -3.89 0.078 -3.87 0.142 -3.855 0.207 -3.834 0.263 -3.791 0.319 -3.763 0.384 -3.713 0.433 -3.663 0.498 -3.606 0.554 -3.543 0.605 -3.478 0.661 -3.407 0.719 -3.336 0.762 -3.244 0.81 -3.166 0.861 -3.065 0.911 -2.974 0.954 -2.873 0.995 -2.767 1.032 -2.653 1.073 -2.546 1.109 -2.425 1.144 -2.311 1.181 -2.184 1.21 -2.063 1.238 -1.934 1.258 -1.8 1.288 -1.665 1.309 -1.536 1.331 -1.394 1.337 -1.252 1.359 -1.116 1.372 -0.974 1.38 -0.84 1.387 -0.691 1.394 -0.547 1.394 -0.405 1.394 -0.263 1.387 -0.121 1.387 0.021 1.38 0.164 1.366 0.299 1.359 0.433 1.344 0.577 1.323 0.711 1.309 0.84 1.281 0.967 1.266 1.096 1.238 1.223 1.21 1.344 1.181 1.458 1.144 1.579 1.116 1.686 1.073 1.792 1.045 1.899 1.003 1.999 0.967 2.091 0.918 2.184 0.881 2.27 0.832 2.347 0.79 2.425 0.739 2.496 0.696 2.561 0.64 2.625 0.597 2.675 0.541 2.731 0.491 2.767 0.441 2.809 0.384 2.845 0.334 2.873 0.284 2.895 0.22 2.909 0.177 2.916 0.114 2.923 0.064 2.923 0.015 2.916 -0.043 2.903 -0.099 2.88 -0.149 2.86 -0.2 2.832 -0.248 2.795 -0.306 2.759 -0.349 2.703 -0.405 2.66 -0.448 2.604 -0.498 2.539 -0.541 2.475 -0.59 2.404 -0.625 2.326 -0.668 2.248 -0.711 2.162 -0.754 2.078 -0.782 1.984 -0.818 1.885 -0.861 1.792 -0.881 1.678 -0.918 1.579 -0.939 1.465 -0.967 1.359 -0.995 1.238 -1.01 1.124 -1.032 1.003 -1.053 0.881 -1.06 0.762 -1.081 0.64 -1.081 0.506 -1.096 0.384 -1.103 0.256 -1.103 0.129h-1.108l-1.103 -0.129 -1.103 -0.256 -1.096 -0.384 -1.081 -0.506 -1.081 -0.64 -1.06 -0.762 -1.053 -0.881 -1.032 -1.003 -1.01 -1.124 -0.995 -1.238 -0.967 -1.359 -0.939 -1.465 -0.918 -1.579 -0.881 -1.678 -0.861 -1.792 -0.818 -1.885 -0.782 -1.984 -0.754 -2.078 -0.711 -2.162 -0.668 -2.248 -0.625 -2.326 -0.59 -2.404 -0.541 -2.475 -0.498 -2.539 -0.448 -2.604 -0.405 -2.66 -0.349 -2.703 -0.306 -2.759 -0.248 -2.795 -0.2 -2.832 -0.149 -2.86 -0.099 -2.88 -0.043 -2.903 0.015 -2.916 0.064 -2.923 0.114 -2.923 0.177 -2.916 0.22 -2.909 0.284 -2.895 0.336 -2.873 0.384 -2.845 0.441 -2.809 0.491 -2.767 0.541 -2.731 0.597 -2.675 0.64 -2.625 0.696 -2.561 0.739 -2.496 0.79 -2.425 0.832 -2.347 0.881 -2.27 0.918 -2.184 0.967 -2.091 1.003 -1.999 1.045 -1.899 1.073 -1.792 1.116 -1.686 1.144 -1.579 1.181 -1.458 1.21 -1.344 1.238 -1.223 1.266 -1.096 1.281 -0.967 1.309 -0.84 1.323 -0.711 1.344 -0.577 1.359 -0.433 1.366 -0.299 1.38 -0.164 1.387 -0.021 1.387 0.121 1.394 0.263 1.394 0.405 1.394 0.547 1.387 0.691 1.38 0.84 1.372 0.974 1.359 1.116 1.337 1.252 1.331 1.394 1.309 1.536 1.288 1.665 1.258 1.8 1.238 1.934 1.21 2.063 1.181 2.184 1.144 2.311 1.109 2.425 1.073 2.546 1.032 2.653 0.995 2.767 0.954 2.873 0.911 2.974 0.861 3.065 0.81 3.166 0.762 3.244 0.719 3.336 0.661 3.407 0.605 3.478 0.554 3.543 0.498 3.606 0.433 3.663 0.384 3.713 0.319 3.763 0.263 3.791 0.207 3.834 0.142 3.855 0.078 3.87 0.021 3.89 -0.043 3.898 -0.106 3.905 -0.17 3.89 -0.228 3.89 -0.291 3.87 -0.356 3.847 -0.42 3.819 -0.476 3.784 -0.534 3.741 -0.597 3.692 -0.661 3.649 -0.711 3.578 -0.775 3.521 -0.825 3.45 -0.881 3.379 -0.939 3.293 -0.989 3.201 -1.045 3.116 -1.088 3.022 -1.139 2.916 -1.187 2.809 -1.23 2.696 -1.273 2.589 -1.309 2.46 -1.351 2.341 -1.394 2.219 -1.422 2.078 -1.458 1.949 -1.486 1.814 -1.516 1.671 -1.544 1.529 -1.572 1.38 -1.587 1.238 -1.607 1.081 -1.622 0.932 -1.635 0.782 -1.643 0.625 -1.658 0.469 -1.665 0.313 -1.671 0.157H-0.832l-1.671 -0.157 -1.665 -0.313 -1.658 -0.469 -1.643 -0.625 -1.635 -0.782 -1.622 -0.932 -1.607 -1.081 -1.587 -1.238 -1.572 -1.38 -1.544 -1.529 -1.516 -1.671 -1.486 -1.814 -1.458 -1.949 -1.422 -2.078 -1.394 -2.219 -1.351 -2.341 -1.309 -2.46 -1.273 -2.589 -1.23 -2.696 -1.187 -2.809 -1.139 -2.916 -1.088 -3.022 -1.045 -3.116 -0.989 -3.201 -0.939 -3.293 -0.881 -3.379 -0.825 -3.45 -0.775 -3.521 -0.711 -3.578 -0.661 -3.649 -0.597 -3.692 -0.534 -3.741 -0.476 -3.784 -0.42 -3.819 -0.356 -3.847 -0.291 -3.87 -0.228 -3.89" fill="none" stroke="black" stroke-width="1.4225767658141584"/>
  </g>
</svg>
