<?xml version="1.0" ?>
<svg xmlns="http://www.w3.org/2000/svg" width="204.11" height="204.05" viewBox="-102.05 -102.02 204.11 204.05">
  <g transform="scale(1,-1)">
    <path d="M 0.00,0.00 L 0.46,10.87 L 1.81,21.60 L 4.05,32.07 L 7.13,42.15 L 10.99,51.72 L 15.57,60.66 L 20.79,68.87 L 26.56,76.26 L 32.76,82.74 L 39.29,88.26 L 46.04,92.75 L 52.88,96.19 L 59.68,98.54 L 66.32,99.82 L 72.67,100.02 L 78.62,99.19 L 84.03,97.35 L 88.82,94.58 L 92.86,90.94 L 96.08,86.51 L 98.39,81.40 L 99.73,75.70 L 100.05,69.54 L 99.32,63.03 L 97.50,56.29 L 94.60,49.46 L 90.63,42.65 L 85.62,35.99 L 79.62,29.61 L 72.67,23.61 L 64.86,18.11 L 56.28,13.20 L 47.01,8.97 L 37.17,5.49 L 26.88,2.83 L 16.26,1.02 L 5.44,0.11 L -5.44,0.11 L -16.26,1.02 L -26.88,2.83 L -37.17,5.49 L -47.01,8.97 L -56.28,13.20 L -64.86,18.11 L -72.67,23.61 L -79.62,29.61 L -85.62,35.99 L -90.63,42.65 L -94.60,49.46 L -97.50,56.29 L -99.32,63.03 L -100.05,69.54 L -99.73,75.70 L -98.39,81.40 L -96.08,86.51 L -92.86,90.94 L -88.82,94.58 L -84.03,97.35 L -78.62,99.19 L -72.67,100.02 L -66.32,99.82 L -59.68,98.54 L -52.88,96.19 L -46.04,92.75 L -39.29,88.26 L -32.76,82.74 L -26.56,76.26 L -20.79,68.87 L -15.57,60.66 L -10.99,51.72 L -7.13,42.15 L -4.05,32.07 L -1.81,21.60 L -0.46,10.87 L -0.00,0.00 L -0.46,-10.87 L -1.81,-21.60 L -4.05,-32.07 L -7.13,-42.15 L -10.99,-51.72 L -15.57,-60.66 L -20.79,-68.87 L -26.56,-76.26 L -32.76,-82.74 L -39.29,-88.26 L -46.04,-92.75 L -52.88,-96.19 L -59.68,-98.54 L -66.32,-99.82 L -72.67,-100.02 L -78.62,-99.19 L -84.03,-97.35 L -88.82,-94.58 L -92.86,-90.94 L -96.08,-86.51 L -98.39,-81.40 L -99.73,-75.70 L -100.05,-69.54 L -99.32,-63.03 L -97.50,-56.29 L -94.60,-49.46 L -90.63,-42.65 L -85.62,-35.99 L -79.62,-29.61 L -72.67,-23.61 L -64.86,-18.11 L -56.28,-13.20 L -47.01,-8.97 L -37.17,-5.49 L -26.88,-2.83 L -16.26,-1.02 L -5.44,-0.11 L 5.44,-0.11 L 16.26,-1.02 L 26.88,-2.83 L 37.17,-5.49 L 47.01,-8.97 L 56.28,-13.20 L 64.86,-18.11 L 72.67,-23.61 L 79.62,-29.61 L 85.62,-35.99 L 90.63,-42.65 L 94.60,-49.46 L 97.50,-56.29 L 99.32,-63.03 L 100.05,-69.54 L 99.73,-75.70 L 98.39,-81.40 L 96.08,-86.51 L 92.86,-90.94 L 88.82,-94.58 L 84.03,-97.35 L 78.62,-99.19 L 72.67,-100.02 L 66.32,-99.82 L 59.68,-98.54 L 52.88,-96.19 L 46.04,-92.75 L 39.29,-88.26 L 32.76,-82.74 L 26.56,-76.26 L 20.79,-68.87 L 15.57,-60.66 L 10.99,-51.72 L 7.13,-42.15 L 4.05,-32.07 L 1.81,-21.60 L 0.46,-10.87 L 0.00,-0.00 L 0.46,10.87 L 1.81,21.60 L 4.05,32.07 L 7.13,42.15 L 10.99,51.72 L 15.57,60.66 L 20.79,68.87 L 26.56,76.26 L 32.76,82.74 L 39.29,88.26 L 46.04,92.75 L 52.88,96.19 L 59.68,98.54 L 66.32,99.82 L 72.67,100.02 L 78.62,99.19 L 84.03,97.35 L 88.82,94.58 L 92.86,90.94 L 96.08,86.51 L 98.39,81.40 L 99.73,75.70 L 100.05,69.54 L 99.32,63.03 L 97.50,56.29 L 94.60,49.46 L 90.63,42.65 L 85.62,35.99 L 79.62,29.61 L 72.67,23.61 L 64.86,18.11 L 56.28,13.20 L 47.01,8.97 L 37.17,5.49 L 26.88,2.83 L 16.26,1.02 L 5.44,0.11 L -5.44,0.11 L -16.26,1.02 L -26.88,2.83 L -37.17,5.49 L -47.01,8.97 L -56.28,13.20 L -64.86,18.11 L -72.67,23.61 L -79.62,29.61 L -85.62,35.99 L -90.63,42.65 L -94.60,49.46 L -97.50,56.29 L -99.32,63.03 L -100.05,69.54 L -99.73,75.70 L -98.39,81.40 L -96.08,86.51 L -92.86,90.94 L -88.82,94.58 L -84.03,97.35 L -78.62,99.19 L -72.67,100.02 L -66.32,99.82 L -59.68,98.54 L -52.88,96.19 L -46.04,92.75 L -39.29,88.26 L -32.76,82.74 L -26.56,76.26 L -20.79,68.87 L -15.57,60.66 L -10.99,51.72 L -7.13,42.15 L -4.05,32.07 L -1.81,21.60 L -0.46,10.87 L -0.00,0.00 L -0.46,-10.87 L -1.81,-21.60 L -4.05,-32.07 L -7.13,-42.15 L -10.99,-51.72 L -15.57,-60.66 L -20.79,-68.87 L -26.56,-76.26 L -32.76,-82.74 L -39.29,-88.26 L -46.04,-92.75 L -52.88,-96.19 L -59.68,-98.54 L -66.32,-99.82 L -72.67,-100.02 L -78.62,-99.19 L -84.03,-97.35 L -88.82,-94.58 L -92.86,-90.94 L -96.08,-86.51 L -98.39,-81.40 L -99.73,-75.70 L -100.05,-69.54 L -99.32,-63.03 L -97.50,-56.29 L -94.60,-49.46 L -90.63,-42.65 L -85.62,-35.99 L -79.62,-29.61 L -72.67,-23.61 L -64.86,-18.11 L -56.28,-13.20 L -47.01,-8.97 L -37.17,-5.49 L -26.88,-2.83 L -16.26,-1.02 L -5.44,-0.11 L 5.44,-0.11 L 16.26,-1.02 L 26.88,-2.83 L 37.17,-5.49 L 47.01,-8.97 L 56.28,-13.20 L 64.86,-18.11 L 72.67,-23.61 L 79.62,-29.61 L 85.62,-35.99 L 90.63,-42.65 L 94.60,-49.46 L 97.50,-56.29 L 99.32,-63.03 L 100.05,-69.54 L 99.73,-75.70 L 98.39,-81.40 L 96.08,-86.51 L 92.86,-90.94 L 88.82,-94.58 L 84.03,-97.35 L 78.62,-99.19 L 72.67,-100.02 L 66.32,-99.82 L 59.68,-98.54 L 52.88,-96.19 L 46.04,-92.75 L 39.29,-88.26 L 32.76,-82.74 L 26.56,-76.26 L 20.79,-68.87 L 15.57,-60.66 L 10.99,-51.72 L 7.13,-42.15 L 4.05,-32.07 L 1.81,-21.60 L 0.46,-10.87 L 0.00,-0.00" fill="none" stroke="black" stroke-width="2"/>
  </g>
</svg>
