<svg xmlns="http://www.w3.org/2000/svg" width="100" height="100" viewBox="-100 -120 200 240" version="1.1" xmlns:xlink="http://www.w3.org/1999/xlink">
  <g transform="translate(0, -60) scale(0.7, 0.7)">
    <path d="M -0.00,224.27 L -9.36,223.61 L -18.55,221.65 L -27.38,218.45 L -35.70,214.08 L -43.38,208.66 L -50.31,202.31 L -56.41,195.17 L -61.63,187.39 L -65.93,179.11 L -69.33,170.46 L -71.84,161.58 L -73.51,152.58 L -74.37,143.56 L -74.50,134.62 L -73.95,125.81 L -72.80,117.19 L -71.11,108.82 L -68.95,100.73 L -66.40,92.93 L -63.50,85.45 L -60.32,78.28 L -56.91,71.44 L -53.31,64.93 L -49.58,58.72 L -45.75,52.83 L -41.86,47.23 L -37.93,41.92 L -34.00,36.88 L -30.09,32.10 L -26.21,27.56 L -22.40,23.26 L -18.66,19.17 L -15.02,15.29 L -11.47,11.59 L -8.04,8.08 L -4.72,4.73 L -1.54,1.54 L 1.51,-1.51 L 4.41,-4.42 L 7.18,-7.22 L 9.79,-9.90 L 12.25,-12.47 L 14.56,-14.96 L 16.71,-17.35 L 18.71,-19.67 L 20.54,-21.92 L 22.22,-24.10 L 23.73,-26.23 L 25.08,-28.30 L 26.27,-30.34 L 27.30,-32.33 L 28.16,-34.30 L 28.86,-36.23 L 29.39,-38.14 L 29.75,-40.03 L 29.94,-41.91 L 29.96,-43.76 L 29.80,-45.60 L 29.45,-47.42 L 28.93,-49.22 L 28.22,-51.00 L 27.32,-52.74 L 26.23,-54.45 L 24.95,-56.12 L 23.48,-57.72 L 21.81,-59.24 L 19.96,-60.68 L 17.92,-62.01 L 15.72,-63.21 L 13.36,-64.27 L 10.87,-65.16 L 8.26,-65.88 L 5.56,-66.40 L 2.79,-66.72 L 0.00,-66.83 L -2.79,-66.72 L -5.56,-66.40 L -8.26,-65.88 L -10.87,-65.16 L -13.36,-64.27 L -15.72,-63.21 L -17.92,-62.01 L -19.96,-60.68 L -21.81,-59.24 L -23.48,-57.72 L -24.95,-56.12 L -26.23,-54.45 L -27.32,-52.74 L -28.22,-51.00 L -28.93,-49.22 L -29.45,-47.42 L -29.80,-45.60 L -29.96,-43.76 L -29.94,-41.91 L -29.75,-40.03 L -29.39,-38.14 L -28.86,-36.23 L -28.16,-34.30 L -27.30,-32.33 L -26.27,-30.34 L -25.08,-28.30 L -23.73,-26.23 L -22.22,-24.10 L -20.54,-21.92 L -18.71,-19.67 L -16.71,-17.35 L -14.56,-14.96 L -12.25,-12.47 L -9.79,-9.90 L -7.18,-7.22 L -4.41,-4.42 L -1.51,-1.51 L 1.54,1.54 L 4.72,4.73 L 8.04,8.08 L 11.47,11.59 L 15.02,15.29 L 18.66,19.17 L 22.40,23.26 L 26.21,27.56 L 30.09,32.10 L 34.00,36.88 L 37.93,41.92 L 41.86,47.23 L 45.75,52.83 L 49.58,58.72 L 53.31,64.93 L 56.91,71.44 L 60.32,78.28 L 63.50,85.45 L 66.40,92.93 L 68.95,100.73 L 71.11,108.82 L 72.80,117.19 L 73.95,125.81 L 74.50,134.62 L 74.37,143.56 L 73.51,152.58 L 71.84,161.58 L 69.33,170.46 L 65.93,179.11 L 61.63,187.39 L 56.41,195.17 L 50.31,202.31 L 43.38,208.66 L 35.70,214.08 L 27.38,218.45 L 18.55,221.65 L 9.36,223.61 L 0.00,224.27 L -9.36,223.61 L -18.55,221.65 L -27.38,218.45 L -35.70,214.08 L -43.38,208.66 L -50.31,202.31 L -56.41,195.17 L -61.63,187.39 L -65.93,179.11 L -69.33,170.46 L -71.84,161.58 L -73.51,152.58 L -74.37,143.56 L -74.50,134.62 L -73.95,125.81 L -72.80,117.19 L -71.11,108.82 L -68.95,100.73 L -66.40,92.93 L -63.50,85.45 L -60.32,78.28 L -56.91,71.44 L -53.31,64.93 L -49.58,58.72 L -45.75,52.83 L -41.86,47.23 L -37.93,41.92 L -34.00,36.88 L -30.09,32.10 L -26.21,27.56 L -22.40,23.26 L -18.66,19.17 L -15.02,15.29 L -11.47,11.59 L -8.04,8.08 L -4.72,4.73 L -1.54,1.54 L 1.51,-1.51 L 4.41,-4.42 L 7.18,-7.22 L 9.79,-9.90 L 12.25,-12.47 L 14.56,-14.96 L 16.71,-17.35 L 18.71,-19.67 L 20.54,-21.92 L 22.22,-24.10 L 23.73,-26.23 L 25.08,-28.30 L 26.27,-30.34 L 27.30,-32.33 L 28.16,-34.30 L 28.86,-36.23 L 29.39,-38.14 L 29.75,-40.03 L 29.94,-41.91 L 29.96,-43.76 L 29.80,-45.60 L 29.45,-47.42 L 28.93,-49.22 L 28.22,-51.00 L 27.32,-52.74 L 26.23,-54.45 L 24.95,-56.12 L 23.48,-57.72 L 21.81,-59.24 L 19.96,-60.68 L 17.92,-62.01 L 15.72,-63.21 L 13.36,-64.27 L 10.87,-65.16 L 8.26,-65.88 L 5.56,-66.40 L 2.79,-66.72 L 0.00,-66.83 L -2.79,-66.72 L -5.56,-66.40 L -8.26,-65.88 L -10.87,-65.16 L -13.36,-64.27 L -15.72,-63.21 L -17.92,-62.01 L -19.96,-60.68 L -21.81,-59.24 L -23.48,-57.72 L -24.95,-56.12 L -26.23,-54.45 L -27.32,-52.74 L -28.22,-51.00 L -28.93,-49.22 L -29.45,-47.42 L -29.80,-45.60 L -29.96,-43.76 L -29.94,-41.91 L -29.75,-40.03 L -29.39,-38.14 L -28.86,-36.23 L -28.16,-34.30 L -27.30,-32.33 L -26.27,-30.34 L -25.08,-28.30 L -23.73,-26.23 L -22.22,-24.10 L -20.54,-21.92 L -18.71,-19.67 L -16.71,-17.35 L -14.56,-14.96 L -12.25,-12.47 L -9.79,-9.90 L -7.18,-7.22 L -4.41,-4.42 L -1.51,-1.51 L 1.54,1.54 L 4.72,4.73 L 8.04,8.08 L 11.47,11.59 L 15.02,15.29 L 18.66,19.17 L 22.40,23.26 L 26.21,27.56 L 30.09,32.10 L 34.00,36.88 L 37.93,41.92 L 41.86,47.23 L 45.75,52.83 L 49.58,58.72 L 53.31,64.93 L 56.91,71.44 L 60.32,78.28 L 63.50,85.45 L 66.40,92.93 L 68.95,100.73 L 71.11,108.82 L 72.80,117.19 L 73.95,125.81 L 74.50,134.62 L 74.37,143.56 L 73.51,152.58 L 71.84,161.58 L 69.33,170.46 L 65.93,179.11 L 61.63,187.39 L 56.41,195.17 L 50.31,202.31 L 43.38,208.66 L 35.70,214.08 L 27.38,218.45 L 18.55,221.65 L 9.36,223.61 L 0.00,224.27" fill="none" stroke="black" stroke-width="2"/>
  </g>
</svg>
