<?xml version="1.0" ?>
<svg xmlns="http://www.w3.org/2000/svg" width="200" height="200" viewBox="-100 -120 200 240">
  <g transform="translate(0, 35) scale(1,1)">
    <path d="M -52.00,0.00 L -51.95,-4.36 L -51.82,-8.70 L -51.59,-13.03 L -51.27,-17.34 L -50.86,-21.62 L -50.37,-25.86 L -49.78,-30.06 L -49.11,-34.20 L -48.35,-38.28 L -47.50,-42.30 L -46.58,-46.24 L -45.57,-50.10 L -44.48,-53.87 L -43.31,-57.55 L -42.07,-61.13 L -40.75,-64.60 L -39.36,-67.96 L -37.91,-71.19 L -36.38,-74.31 L -34.79,-77.29 L -33.15,-80.13 L -31.44,-82.84 L -29.68,-85.40 L -27.86,-87.81 L -26.00,-90.07 L -24.09,-92.17 L -22.14,-94.10 L -20.15,-95.87 L -18.13,-97.48 L -16.07,-98.91 L -13.98,-100.17 L -11.87,-101.25 L -9.74,-102.16 L -7.60,-102.88 L -5.44,-103.43 L -3.27,-103.79 L -1.09,-103.98 L 1.09,-103.98 L 3.27,-103.79 L 5.44,-103.43 L 7.60,-102.88 L 9.74,-102.16 L 11.87,-101.25 L 13.98,-100.17 L 16.07,-98.91 L 18.13,-97.48 L 20.15,-95.87 L 22.14,-94.10 L 24.09,-92.17 L 26.00,-90.07 L 27.86,-87.81 L 29.68,-85.40 L 31.44,-82.84 L 33.15,-80.13 L 34.79,-77.29 L 36.38,-74.31 L 37.91,-71.19 L 39.36,-67.96 L 40.75,-64.60 L 42.07,-61.13 L 43.31,-57.55 L 44.48,-53.87 L 45.57,-50.10 L 46.58,-46.24 L 47.50,-42.30 L 48.35,-38.28 L 49.11,-34.20 L 49.78,-30.06 L 50.37,-25.86 L 50.86,-21.62 L 51.27,-17.34 L 51.59,-13.03 L 51.82,-8.70 L 51.95,-4.36 L 52.00,-0.00 L 51.95,4.36 L 51.82,8.70 L 51.59,13.03 L 51.27,17.34 L 50.86,21.62 L 50.37,25.86 L 49.78,30.06 L 49.11,34.20 L 48.35,38.28 L 47.50,42.30 L 46.58,46.24 L 45.57,50.10 L 44.48,53.87 L 43.31,57.55 L 42.07,61.13 L 40.75,64.60 L 39.36,67.96 L 37.91,71.19 L 36.38,74.31 L 34.79,77.29 L 33.15,80.13 L 31.44,82.84 L 29.68,85.40 L 27.86,87.81 L 26.00,90.07 L 24.09,92.17 L 22.14,94.10 L 20.15,95.87 L 18.13,97.48 L 16.07,98.91 L 13.98,100.17 L 11.87,101.25 L 9.74,102.16 L 7.60,102.88 L 5.44,103.43 L 3.27,103.79 L 1.09,103.98 L -1.09,103.98 L -3.27,103.79 L -5.44,103.43 L -7.60,102.88 L -9.74,102.16 L -11.87,101.25 L -13.98,100.17 L -16.07,98.91 L -18.13,97.48 L -20.15,95.87 L -22.14,94.10 L -24.09,92.17 L -26.00,90.07 L -27.86,87.81 L -29.68,85.40 L -31.44,82.84 L -33.15,80.13 L -34.79,77.29 L -36.38,74.31 L -37.91,71.19 L -39.36,67.96 L -40.75,64.60 L -42.07,61.13 L -43.31,57.55 L -44.48,53.87 L -45.57,50.10 L -46.58,46.24 L -47.50,42.30 L -48.35,38.28 L -49.11,34.20 L -49.78,30.06 L -50.37,25.86 L -50.86,21.62 L -51.27,17.34 L -51.59,13.03 L -51.82,8.70 L -51.95,4.36 L -52.00,0.00 L -51.95,-4.36 L -51.82,-8.70 L -51.59,-13.03 L -51.27,-17.34 L -50.86,-21.62 L -50.37,-25.86 L -49.78,-30.06 L -49.11,-34.20 L -48.35,-38.28 L -47.50,-42.30 L -46.58,-46.24 L -45.57,-50.10 L -44.48,-53.87 L -43.31,-57.55 L -42.07,-61.13 L -40.75,-64.60 L -39.36,-67.96 L -37.91,-71.19 L -36.38,-74.31 L -34.79,-77.29 L -33.15,-80.13 L -31.44,-82.84 L -29.68,-85.40 L -27.86,-87.81 L -26.00,-90.07 L -24.09,-92.17 L -22.14,-94.10 L -20.15,-95.87 L -18.13,-97.48 L -16.07,-98.91 L -13.98,-100.17 L -11.87,-101.25 L -9.74,-102.16 L -7.60,-102.88 L -5.44,-103.43 L -3.27,-103.79 L -1.09,-103.98 L 1.09,-103.98 L 3.27,-103.79 L 5.44,-103.43 L 7.60,-102.88 L 9.74,-102.16 L 11.87,-101.25 L 13.98,-100.17 L 16.07,-98.91 L 18.13,-97.48 L 20.15,-95.87 L 22.14,-94.10 L 24.09,-92.17 L 26.00,-90.07 L 27.86,-87.81 L 29.68,-85.40 L 31.44,-82.84 L 33.15,-80.13 L 34.79,-77.29 L 36.38,-74.31 L 37.91,-71.19 L 39.36,-67.96 L 40.75,-64.60 L 42.07,-61.13 L 43.31,-57.55 L 44.48,-53.87 L 45.57,-50.10 L 46.58,-46.24 L 47.50,-42.30 L 48.35,-38.28 L 49.11,-34.20 L 49.78,-30.06 L 50.37,-25.86 L 50.86,-21.62 L 51.27,-17.34 L 51.59,-13.03 L 51.82,-8.70 L 51.95,-4.36 L 52.00,-0.00 L 51.95,4.36 L 51.82,8.70 L 51.59,13.03 L 51.27,17.34 L 50.86,21.62 L 50.37,25.86 L 49.78,30.06 L 49.11,34.20 L 48.35,38.28 L 47.50,42.30 L 46.58,46.24 L 45.57,50.10 L 44.48,53.87 L 43.31,57.55 L 42.07,61.13 L 40.75,64.60 L 39.36,67.96 L 37.91,71.19 L 36.38,74.31 L 34.79,77.29 L 33.15,80.13 L 31.44,82.84 L 29.68,85.40 L 27.86,87.81 L 26.00,90.07 L 24.09,92.17 L 22.14,94.10 L 20.15,95.87 L 18.13,97.48 L 16.07,98.91 L 13.98,100.17 L 11.87,101.25 L 9.74,102.16 L 7.60,102.88 L 5.44,103.43 L 3.27,103.79 L 1.09,103.98 L -1.09,103.98 L -3.27,103.79 L -5.44,103.43 L -7.60,102.88 L -9.74,102.16 L -11.87,101.25 L -13.98,100.17 L -16.07,98.91 L -18.13,97.48 L -20.15,95.87 L -22.14,94.10 L -24.09,92.17 L -26.00,90.07 L -27.86,87.81 L -29.68,85.40 L -31.44,82.84 L -33.15,80.13 L -34.79,77.29 L -36.38,74.31 L -37.91,71.19 L -39.36,67.96 L -40.75,64.60 L -42.07,61.13 L -43.31,57.55 L -44.48,53.87 L -45.57,50.10 L -46.58,46.24 L -47.50,42.30 L -48.35,38.28 L -49.11,34.20 L -49.78,30.06 L -50.37,25.86 L -50.86,21.62 L -51.27,17.34 L -51.59,13.03 L -51.82,8.70 L -51.95,4.36 L -52.00,0.00" fill="none" stroke="black" stroke-width="2"/>
  </g>
</svg>
