<svg xmlns="http://www.w3.org/2000/svg" width="100" height="100" viewBox="-100 -120 200 240" version="1.1" xmlns:xlink="http://www.w3.org/1999/xlink">
  <g transform="translate(0, -30) scale(0.7, 0.7)">
    <path d="M -0.00,198.38 L -8.28,197.82 L -16.41,196.13 L -24.24,193.37 L -31.62,189.61 L -38.45,184.94 L -44.63,179.46 L -50.09,173.30 L -54.78,166.59 L -58.69,159.43 L -61.81,151.97 L -64.16,144.29 L -65.76,136.50 L -66.67,128.69 L -66.92,120.93 L -66.59,113.29 L -65.72,105.80 L -64.37,98.51 L -62.60,91.44 L -60.46,84.63 L -58.01,78.07 L -55.30,71.77 L -52.37,65.74 L -49.25,59.98 L -45.99,54.47 L -42.62,49.22 L -39.17,44.21 L -35.67,39.42 L -32.13,34.86 L -28.59,30.50 L -25.04,26.33 L -21.52,22.35 L -18.04,18.53 L -14.61,14.87 L -11.23,11.35 L -7.92,7.97 L -4.69,4.70 L -1.54,1.54 L 1.52,-1.52 L 4.49,-4.49 L 7.35,-7.39 L 10.12,-10.23 L 12.77,-13.00 L 15.32,-15.74 L 17.75,-18.43 L 20.06,-21.09 L 22.25,-23.74 L 24.32,-26.38 L 26.25,-29.01 L 28.04,-31.65 L 29.70,-34.30 L 31.21,-36.96 L 32.56,-39.66 L 33.76,-42.38 L 34.78,-45.14 L 35.62,-47.93 L 36.27,-50.77 L 36.72,-53.64 L 36.96,-56.56 L 36.96,-59.50 L 36.72,-62.47 L 36.22,-65.45 L 35.45,-68.43 L 34.39,-71.39 L 33.04,-74.31 L 31.38,-77.16 L 29.42,-79.91 L 27.14,-82.51 L 24.55,-84.95 L 21.68,-87.17 L 18.53,-89.13 L 15.14,-90.80 L 11.55,-92.14 L 7.79,-93.12 L 3.92,-93.72 L 0.00,-93.92 L -3.92,-93.72 L -7.79,-93.12 L -11.55,-92.14 L -15.14,-90.80 L -18.53,-89.13 L -21.68,-87.17 L -24.55,-84.95 L -27.14,-82.51 L -29.42,-79.91 L -31.38,-77.16 L -33.04,-74.31 L -34.39,-71.39 L -35.45,-68.43 L -36.22,-65.45 L -36.72,-62.47 L -36.96,-59.50 L -36.96,-56.56 L -36.72,-53.64 L -36.27,-50.77 L -35.62,-47.93 L -34.78,-45.14 L -33.76,-42.38 L -32.56,-39.66 L -31.21,-36.96 L -29.70,-34.30 L -28.04,-31.65 L -26.25,-29.01 L -24.32,-26.38 L -22.25,-23.74 L -20.06,-21.09 L -17.75,-18.43 L -15.32,-15.74 L -12.77,-13.00 L -10.12,-10.23 L -7.35,-7.39 L -4.49,-4.49 L -1.52,-1.52 L 1.54,1.54 L 4.69,4.70 L 7.92,7.97 L 11.23,11.35 L 14.61,14.87 L 18.04,18.53 L 21.52,22.35 L 25.04,26.33 L 28.59,30.50 L 32.13,34.86 L 35.67,39.42 L 39.17,44.21 L 42.62,49.22 L 45.99,54.47 L 49.25,59.98 L 52.37,65.74 L 55.30,71.77 L 58.01,78.07 L 60.46,84.63 L 62.60,91.44 L 64.37,98.51 L 65.72,105.80 L 66.59,113.29 L 66.92,120.93 L 66.67,128.69 L 65.76,136.50 L 64.16,144.29 L 61.81,151.97 L 58.69,159.43 L 54.78,166.59 L 50.09,173.30 L 44.63,179.46 L 38.45,184.94 L 31.62,189.61 L 24.24,193.37 L 16.41,196.13 L 8.28,197.82 L 0.00,198.38 L -8.28,197.82 L -16.41,196.13 L -24.24,193.37 L -31.62,189.61 L -38.45,184.94 L -44.63,179.46 L -50.09,173.30 L -54.78,166.59 L -58.69,159.43 L -61.81,151.97 L -64.16,144.29 L -65.76,136.50 L -66.67,128.69 L -66.92,120.93 L -66.59,113.29 L -65.72,105.80 L -64.37,98.51 L -62.60,91.44 L -60.46,84.63 L -58.01,78.07 L -55.30,71.77 L -52.37,65.74 L -49.25,59.98 L -45.99,54.47 L -42.62,49.22 L -39.17,44.21 L -35.67,39.42 L -32.13,34.86 L -28.59,30.50 L -25.04,26.33 L -21.52,22.35 L -18.04,18.53 L -14.61,14.87 L -11.23,11.35 L -7.92,7.97 L -4.69,4.70 L -1.54,1.54 L 1.52,-1.52 L 4.49,-4.49 L 7.35,-7.39 L 10.12,-10.23 L 12.77,-13.00 L 15.32,-15.74 L 17.75,-18.43 L 20.06,-21.09 L 22.25,-23.74 L 24.32,-26.38 L 26.25,-29.01 L 28.04,-31.65 L 29.70,-34.30 L 31.21,-36.96 L 32.56,-39.66 L 33.76,-42.38 L 34.78,-45.14 L 35.62,-47.93 L 36.27,-50.77 L 36.72,-53.64 L 36.96,-56.56 L 36.96,-59.50 L 36.72,-62.47 L 36.22,-65.45 L 35.45,-68.43 L 34.39,-71.39 L 33.04,-74.31 L 31.38,-77.16 L 29.42,-79.91 L 27.14,-82.51 L 24.55,-84.95 L 21.68,-87.17 L 18.53,-89.13 L 15.14,-90.80 L 11.55,-92.14 L 7.79,-93.12 L 3.92,-93.72 L 0.00,-93.92 L -3.92,-93.72 L -7.79,-93.12 L -11.55,-92.14 L -15.14,-90.80 L -18.53,-89.13 L -21.68,-87.17 L -24.55,-84.95 L -27.14,-82.51 L -29.42,-79.91 L -31.38,-77.16 L -33.04,-74.31 L -34.39,-71.39 L -35.45,-68.43 L -36.22,-65.45 L -36.72,-62.47 L -36.96,-59.50 L -36.96,-56.56 L -36.72,-53.64 L -36.27,-50.77 L -35.62,-47.93 L -34.78,-45.14 L -33.76,-42.38 L -32.56,-39.66 L -31.21,-36.96 L -29.70,-34.30 L -28.04,-31.65 L -26.25,-29.01 L -24.32,-26.38 L -22.25,-23.74 L -20.06,-21.09 L -17.75,-18.43 L -15.32,-15.74 L -12.77,-13.00 L -10.12,-10.23 L -7.35,-7.39 L -4.49,-4.49 L -1.52,-1.52 L 1.54,1.54 L 4.69,4.70 L 7.92,7.97 L 11.23,11.35 L 14.61,14.87 L 18.04,18.53 L 21.52,22.35 L 25.04,26.33 L 28.59,30.50 L 32.13,34.86 L 35.67,39.42 L 39.17,44.21 L 42.62,49.22 L 45.99,54.47 L 49.25,59.98 L 52.37,65.74 L 55.30,71.77 L 58.01,78.07 L 60.46,84.63 L 62.60,91.44 L 64.37,98.51 L 65.72,105.80 L 66.59,113.29 L 66.92,120.93 L 66.67,128.69 L 65.76,136.50 L 64.16,144.29 L 61.81,151.97 L 58.69,159.43 L 54.78,166.59 L 50.09,173.30 L 44.63,179.46 L 38.45,184.94 L 31.62,189.61 L 24.24,193.37 L 16.41,196.13 L 8.28,197.82 L 0.00,198.38" fill="none" stroke="black" stroke-width="1.43" vector-effect="non-scaling-stroke"/>
  </g>
</svg>
