<svg xmlns="http://www.w3.org/2000/svg" width="200" height="200" viewBox="-100 -120 200 240" version="1.1" xmlns:xlink="http://www.w3.org/1999/xlink" >
  <g transform="scale(1 1)">
    <path d="m-42.197 35.399 -0.264 -3.739 -0.207 -3.746 -0.157 -3.753 -0.1 -3.753 -0.043 -3.739 0.014 -3.731 0.071 -3.717 0.122 -3.689 0.172 -3.66 0.229 -3.631 0.279 -3.589 0.336 -3.546 0.379 -3.496 0.436 -3.446 0.486 -3.381 0.529 -3.317 0.572 -3.253 0.622 -3.181 0.672 -3.102 0.708 -3.017 0.751 -2.938 0.786 -2.845 0.829 -2.752 0.865 -2.659 0.894 -2.559 0.936 -2.452 0.965 -2.352 0.994 -2.245 1.015 -2.13 1.051 -2.016 1.065 -1.901 1.094 -1.78 1.115 -1.666 1.129 -1.544 1.144 -1.423 1.165 -1.294 1.165 -1.172 1.187 -1.051 1.187 -0.922 1.194 -0.801 1.201 -0.672 1.201 -0.543 1.194 -0.422 1.201 -0.293 1.187 -0.179 1.187 -0.05 1.179 0.071 1.165 0.193 1.151 0.307 1.137 0.422 1.122 0.536 1.101 0.651 1.087 0.765 1.065 0.865 1.037 0.972 1.015 1.065 0.986 1.172 0.958 1.265L4.289 -66.109l0.901 1.444 0.865 1.523 0.829 1.601 0.801 1.687 0.765 1.751 0.722 1.816 0.686 1.88 0.651 1.944 0.608 1.994 0.565 2.044 0.529 2.087 0.486 2.123 0.443 2.166 0.4 2.195 0.357 2.216 0.315 2.237 0.272 2.259 0.229 2.266 0.186 2.266 0.143 2.273 0.093 2.266 0.057 2.259 0.014 2.245 -0.029 2.23 -0.071 2.202 -0.114 2.173 -0.157 2.145 -0.186 2.102 -0.236 2.066 -0.272 2.016 -0.307 1.973 -0.343 1.909 -0.372 1.859 -0.415 1.794 -0.443 1.73 -0.479 1.658 -0.508 1.587 -0.529 1.515 -0.565 1.43 -0.586 1.351 -0.615 1.265 -0.629 1.179 -0.658 1.094 -0.672 0.994 -0.693 0.908 -0.708 0.808 -0.722 0.708 -0.729 0.615 -0.743 0.508 -0.751 0.415 -0.758 0.307 -0.765 0.207 -0.765 0.1H-0.386l-0.765 -0.1 -0.765 -0.207 -0.758 -0.307 -0.751 -0.415 -0.743 -0.508 -0.729 -0.615 -0.722 -0.708 -0.708 -0.808 -0.693 -0.908 -0.672 -0.994 -0.658 -1.094 -0.629 -1.179 -0.615 -1.265 -0.586 -1.351 -0.565 -1.43 -0.529 -1.515 -0.508 -1.587 -0.479 -1.658 -0.443 -1.73 -0.415 -1.794 -0.372 -1.859 -0.343 -1.909 -0.307 -1.973 -0.272 -2.016 -0.236 -2.066 -0.186 -2.102 -0.157 -2.145 -0.114 -2.173 -0.071 -2.202 -0.029 -2.23 0.014 -2.245 0.057 -2.259 0.093 -2.266 0.143 -2.273 0.186 -2.266 0.229 -2.266 0.272 -2.259 0.315 -2.237 0.357 -2.216 0.4 -2.195 0.443 -2.166 0.486 -2.123 0.529 -2.087 0.565 -2.044 0.608 -1.994 0.651 -1.944 0.686 -1.88 0.722 -1.816 0.765 -1.751 0.801 -1.687 0.829 -1.601 0.865 -1.523L-4.289 -66.109l0.929 -1.351 0.958 -1.265 0.986 -1.172 1.015 -1.065 1.037 -0.972 1.065 -0.865 1.087 -0.765 1.101 -0.651 1.122 -0.536 1.137 -0.422 1.151 -0.307 1.165 -0.193 1.179 -0.071 1.187 0.05 1.187 0.179 1.201 0.293 1.194 0.422 1.201 0.543 1.201 0.672 1.194 0.801 1.187 0.922 1.187 1.051 1.165 1.172 1.165 1.294 1.144 1.423 1.129 1.544 1.115 1.666 1.094 1.78 1.065 1.901L29.309 -58.017l1.015 2.13 0.994 2.245 0.965 2.352 0.936 2.452 0.894 2.559 0.865 2.659 0.829 2.752 0.786 2.845 0.751 2.938 0.708 3.017 0.672 3.102 0.622 3.181 0.572 3.253 0.529 3.317 0.486 3.381 0.436 3.446 0.379 3.496 0.336 3.546 0.279 3.589 0.229 3.631 0.172 3.66 0.122 3.689 0.071 3.717 0.014 3.731 -0.043 3.739 -0.1 3.753 -0.157 3.753 -0.207 3.746 -0.264 3.739 -0.322 3.717 -0.379 3.703 -0.429 3.674 -0.486 3.639 -0.543 3.61 -0.593 3.56 -0.643 3.51 -0.701 3.46 -0.758 3.396 -0.801 3.338 -0.851 3.267 -0.901 3.188 -0.951 3.117 -1.001 3.024 -1.037 2.945 -1.087 2.845 -1.129 2.752 -1.165 2.645 -1.208 2.538 -1.251 2.438 -1.28 2.316 -1.322 2.202 -1.344 2.08 -1.387 1.959 -1.408 1.83 -1.437 1.701 -1.458 1.566 -1.487 1.43 -1.501 1.301 -1.53 1.158 -1.537 1.015 -1.558 0.872 -1.566 0.736 -1.58 0.586 -1.587 0.436 -1.587 0.293 -1.594 0.15h-1.601l-1.594 -0.15 -1.587 -0.293 -1.587 -0.436 -1.58 -0.586 -1.566 -0.736 -1.558 -0.872 -1.537 -1.015 -1.53 -1.158 -1.501 -1.301 -1.487 -1.43 -1.458 -1.566 -1.437 -1.701 -1.408 -1.83 -1.387 -1.959 -1.344 -2.08 -1.322 -2.202 -1.28 -2.316 -1.251 -2.438 -1.208 -2.538 -1.165 -2.645 -1.129 -2.752 -1.087 -2.845 -1.037 -2.945 -1.001 -3.024 -0.951 -3.117 -0.901 -3.188 -0.851 -3.267 -0.801 -3.338 -0.758 -3.396 -0.701 -3.46 -0.643 -3.51 -0.593 -3.56 -0.543 -3.61 -0.486 -3.639 -0.429 -3.674 -0.379 -3.703 -0.322 -3.717 -0.264 -3.739 -0.207 -3.746 -0.157 -3.753 -0.1 -3.753 -0.043 -3.739 0.014 -3.731 0.071 -3.717 0.122 -3.689 0.172 -3.66 0.229 -3.631 0.279 -3.589 0.336 -3.546 0.379 -3.496 0.436 -3.446 0.486 -3.381 0.529 -3.317 0.572 -3.253 0.622 -3.181 0.672 -3.102 0.708 -3.017 0.751 -2.938 0.786 -2.845 0.829 -2.752 0.865 -2.659 0.894 -2.559 0.936 -2.452 0.965 -2.352 0.994 -2.245 1.015 -2.13 1.051 -2.016 1.065 -1.901 1.094 -1.78 1.115 -1.666 1.129 -1.544 1.144 -1.423 1.165 -1.294 1.165 -1.172 1.187 -1.051 1.187 -0.922 1.194 -0.801 1.201 -0.672 1.201 -0.543 1.194 -0.422 1.201 -0.293 1.187 -0.179 1.187 -0.05 1.179 0.071 1.165 0.193 1.151 0.307 1.137 0.422 1.122 0.536 1.101 0.651 1.087 0.765 1.065 0.865 1.037 0.972 1.015 1.065 0.986 1.172 0.958 1.265L4.289 -66.109l0.901 1.444 0.865 1.523 0.829 1.601 0.801 1.687 0.765 1.751 0.722 1.816 0.686 1.88 0.651 1.944 0.608 1.994 0.565 2.044 0.529 2.087 0.486 2.123 0.443 2.166 0.4 2.195 0.357 2.216 0.315 2.237 0.272 2.259 0.229 2.266 0.186 2.266 0.143 2.273 0.093 2.266 0.057 2.259 0.014 2.245 -0.029 2.23 -0.071 2.202 -0.114 2.173 -0.157 2.145 -0.186 2.102 -0.236 2.066 -0.272 2.016 -0.307 1.973 -0.343 1.909 -0.372 1.859 -0.415 1.794 -0.443 1.73 -0.479 1.658 -0.508 1.587 -0.529 1.515 -0.565 1.43 -0.586 1.351 -0.615 1.265 -0.629 1.179 -0.658 1.094 -0.672 0.994 -0.693 0.908 -0.708 0.808 -0.722 0.708 -0.729 0.615 -0.743 0.508 -0.751 0.415 -0.758 0.307 -0.765 0.207 -0.765 0.1H-0.386l-0.765 -0.1 -0.765 -0.207 -0.758 -0.307 -0.751 -0.415 -0.743 -0.508 -0.729 -0.615 -0.722 -0.708 -0.708 -0.808 -0.693 -0.908 -0.672 -0.994 -0.658 -1.094 -0.629 -1.179 -0.615 -1.265 -0.586 -1.351 -0.565 -1.43 -0.529 -1.515 -0.508 -1.587 -0.479 -1.658 -0.443 -1.73 -0.415 -1.794 -0.372 -1.859 -0.343 -1.909 -0.307 -1.973 -0.272 -2.016 -0.236 -2.066 -0.186 -2.102 -0.157 -2.145 -0.114 -2.173 -0.071 -2.202 -0.029 -2.23 0.014 -2.245 0.057 -2.259 0.093 -2.266 0.143 -2.273 0.186 -2.266 0.229 -2.266 0.272 -2.259 0.315 -2.237 0.357 -2.216 0.4 -2.195 0.443 -2.166 0.486 -2.123 0.529 -2.087 0.565 -2.044 0.608 -1.994 0.651 -1.944 0.686 -1.88 0.722 -1.816 0.765 -1.751 0.801 -1.687 0.829 -1.601 0.865 -1.523L-4.289 -66.109l0.929 -1.351 0.958 -1.265 0.986 -1.172 1.015 -1.065 1.037 -0.972 1.065 -0.865 1.087 -0.765 1.101 -0.651 1.122 -0.536 1.137 -0.422 1.151 -0.307 1.165 -0.193 1.179 -0.071 1.187 0.05 1.187 0.179 1.201 0.293 1.194 0.422 1.201 0.543 1.201 0.672 1.194 0.801 1.187 0.922 1.187 1.051 1.165 1.172 1.165 1.294 1.144 1.423 1.129 1.544 1.115 1.666 1.094 1.78 1.065 1.901L29.309 -58.017l1.015 2.13 0.994 2.245 0.965 2.352 0.936 2.452 0.894 2.559 0.865 2.659 0.829 2.752 0.786 2.845 0.751 2.938 0.708 3.017 0.672 3.102 0.622 3.181 0.572 3.253 0.529 3.317 0.486 3.381 0.436 3.446 0.379 3.496 0.336 3.546 0.279 3.589 0.229 3.631 0.172 3.66 0.122 3.689 0.071 3.717 0.014 3.731 -0.043 3.739 -0.1 3.753 -0.157 3.753 -0.207 3.746 -0.264 3.739 -0.322 3.717 -0.379 3.703 -0.429 3.674 -0.486 3.639 -0.543 3.61 -0.593 3.56 -0.643 3.51 -0.701 3.46 -0.758 3.396 -0.801 3.338 -0.851 3.267 -0.901 3.188 -0.951 3.117 -1.001 3.024 -1.037 2.945 -1.087 2.845 -1.129 2.752 -1.165 2.645 -1.208 2.538 -1.251 2.438 -1.28 2.316 -1.322 2.202 -1.344 2.08 -1.387 1.959 -1.408 1.83 -1.437 1.701 -1.458 1.566 -1.487 1.43 -1.501 1.301 -1.53 1.158 -1.537 1.015 -1.558 0.872 -1.566 0.736 -1.58 0.586 -1.587 0.436 -1.587 0.293 -1.594 0.15h-1.601l-1.594 -0.15 -1.587 -0.293 -1.587 -0.436 -1.58 -0.586 -1.566 -0.736 -1.558 -0.872 -1.537 -1.015 -1.53 -1.158 -1.501 -1.301 -1.487 -1.43 -1.458 -1.566 -1.437 -1.701 -1.408 -1.83 -1.387 -1.959 -1.344 -2.08 -1.322 -2.202 -1.28 -2.316 -1.251 -2.438 -1.208 -2.538 -1.165 -2.645 -1.129 -2.752 -1.087 -2.845 -1.037 -2.945 -1.001 -3.024 -0.951 -3.117 -0.901 -3.188 -0.851 -3.267 -0.801 -3.338 -0.758 -3.396 -0.701 -3.46 -0.643 -3.51 -0.593 -3.56 -0.543 -3.61 -0.486 -3.639 -0.429 -3.674 -0.379 -3.703 -0.322 -3.717" fill="none" stroke="black" stroke-width="1.4296916512358104"/>
  </g>
</svg>
