<svg xmlns="http://www.w3.org/2000/svg" width="200" height="200" viewBox="-100 -120 200 240" version="1.1" xmlns:xlink="http://www.w3.org/1999/xlink">
  <g transform="scale(1 1)">
    <path d="m-41.5 47.133 -0.355 -3.537 -0.305 -3.558 -0.256 -3.565 -0.213 -3.573 -0.156 -3.573 -0.114 -3.565 -0.057 -3.558 -0.014 -3.551 0.036 -3.53 0.078 -3.502 0.128 -3.48 0.178 -3.445 0.22 -3.409 0.263 -3.374 0.313 -3.324 0.348 -3.274 0.398 -3.225 0.433 -3.161 0.483 -3.104 0.511 -3.04 0.554 -2.969 0.59 -2.898 0.625 -2.82 0.661 -2.742 0.696 -2.663 0.717 -2.578 0.76 -2.486 0.781 -2.401 0.81 -2.308 0.831 -2.209 0.859 -2.117 0.881 -2.017 0.902 -1.918 0.916 -1.811 0.938 -1.712 0.952 -1.612 0.966 -1.499 0.98 -1.399 0.987 -1.286 1.001 -1.186 1.001 -1.072 1.009 -0.966 1.016 -0.859 1.016 -0.753 1.016 -0.646 1.009 -0.54 1.016 -0.44 1.001 -0.327 1.001 -0.234 0.987 -0.128 0.987 -0.021 0.966 0.064 0.959 0.17 0.945 0.263 0.923 0.348 0.916 0.44 0.888 0.533 0.874 0.611 0.852 0.696 0.831 0.774 0.81 0.852 0.781 0.923 0.76 0.994 0.732 1.058 0.703 1.122 0.675 1.179 0.653 1.236 0.618 1.286 0.582 1.335 0.561 1.385 0.526 1.421 0.49 1.456 0.462 1.492 0.433 1.52 0.398 1.541 0.362 1.57 0.327 1.577 0.298 1.598 0.263 1.598 0.234 1.605 0.199 1.612 0.163 1.605 0.128 1.598 0.107 1.584 0.064 1.57 0.036 1.548 0.007 1.534 -0.021 1.499 -0.057 1.477 -0.078 1.442 -0.114 1.399 -0.135 1.371 -0.163 1.321 -0.192 1.271 -0.213 1.229 -0.234 1.172 -0.263 1.122 -0.277 1.058 -0.298 1.009 -0.32 0.938 -0.341 0.881 -0.355 0.81 -0.362 0.746 -0.384 0.675 -0.398 0.597 -0.405 0.533 -0.412 0.462 -0.426 0.376 -0.426 0.313 -0.433 0.227 -0.44 0.156 -0.44 0.078h-0.44l-0.44 -0.078 -0.44 -0.156 -0.433 -0.227 -0.426 -0.313 -0.426 -0.376 -0.412 -0.462 -0.405 -0.533 -0.398 -0.597 -0.384 -0.675 -0.362 -0.746 -0.355 -0.81 -0.341 -0.881 -0.32 -0.938 -0.298 -1.009 -0.277 -1.058 -0.263 -1.122 -0.234 -1.172 -0.213 -1.229 -0.192 -1.271 -0.163 -1.321 -0.135 -1.371 -0.114 -1.399 -0.078 -1.442 -0.057 -1.477 -0.021 -1.499 0.007 -1.534 0.036 -1.548 0.064 -1.57 0.107 -1.584 0.128 -1.598 0.163 -1.605 0.199 -1.612 0.234 -1.605 0.263 -1.598 0.298 -1.598 0.327 -1.577 0.362 -1.57 0.398 -1.541 0.433 -1.52 0.462 -1.492 0.49 -1.456 0.526 -1.421 0.561 -1.385 0.582 -1.335 0.618 -1.286 0.653 -1.236 0.675 -1.179 0.703 -1.122 0.732 -1.058 0.76 -0.994 0.781 -0.923 0.81 -0.852 0.831 -0.774 0.852 -0.696 0.874 -0.611 0.888 -0.533 0.916 -0.44 0.923 -0.348 0.945 -0.263 0.959 -0.17 0.966 -0.064 0.987 0.021 0.987 0.128 1.001 0.234 1.001 0.327 1.016 0.44 1.009 0.54 1.016 0.646 1.016 0.753 1.016 0.859 1.009 0.966 1.001 1.072 1.001 1.186 0.987 1.286 0.98 1.399 0.966 1.499 0.952 1.612 0.938 1.712 0.916 1.811 0.902 1.918 0.881 2.017 0.859 2.117 0.831 2.209 0.81 2.308 0.781 2.401 0.76 2.486 0.717 2.578 0.696 2.663 0.661 2.742 0.625 2.82 0.59 2.898 0.554 2.969 0.511 3.04 0.483 3.104 0.433 3.161 0.398 3.225 0.348 3.274 0.313 3.324 0.263 3.374 0.22 3.409 0.178 3.445 0.128 3.48 0.078 3.502 0.036 3.53 -0.014 3.551 -0.057 3.558 -0.114 3.565 -0.156 3.573 -0.213 3.573 -0.256 3.565 -0.305 3.558 -0.355 3.537 -0.405 3.516 -0.455 3.494 -0.497 3.459 -0.554 3.431 -0.597 3.381 -0.646 3.345 -0.689 3.296 -0.739 3.232 -0.781 3.182 -0.824 3.118 -0.874 3.047 -0.909 2.976 -0.959 2.898 -0.994 2.82 -1.03 2.734 -1.072 2.642 -1.115 2.557 -1.144 2.457 -1.179 2.351 -1.215 2.259 -1.243 2.145 -1.271 2.038 -1.307 1.925 -1.328 1.811 -1.357 1.69 -1.378 1.577 -1.399 1.449 -1.421 1.321 -1.435 1.2 -1.456 1.065 -1.463 0.938 -1.484 0.81 -1.492 0.675 -1.499 0.54 -1.506 0.405 -1.513 0.27 -1.513 0.135h-1.52l-1.513 -0.135 -1.513 -0.27 -1.506 -0.405 -1.499 -0.54 -1.492 -0.675 -1.484 -0.81 -1.463 -0.938 -1.456 -1.065 -1.435 -1.2 -1.421 -1.321 -1.399 -1.449 -1.378 -1.577 -1.357 -1.69 -1.328 -1.811 -1.307 -1.925 -1.271 -2.038 -1.243 -2.145 -1.215 -2.259 -1.179 -2.351 -1.144 -2.457 -1.115 -2.557 -1.072 -2.642 -1.03 -2.734 -0.994 -2.82 -0.959 -2.898 -0.909 -2.976 -0.874 -3.047 -0.824 -3.118 -0.781 -3.182 -0.739 -3.232 -0.689 -3.296 -0.646 -3.345 -0.597 -3.381 -0.554 -3.431 -0.497 -3.459 -0.455 -3.494 -0.405 -3.516 -0.355 -3.537 -0.305 -3.558 -0.256 -3.565 -0.213 -3.573 -0.156 -3.573 -0.114 -3.565 -0.057 -3.558 -0.014 -3.551 0.036 -3.53 0.078 -3.502 0.128 -3.48 0.178 -3.445 0.22 -3.409 0.263 -3.374 0.313 -3.324 0.348 -3.274 0.398 -3.225 0.433 -3.161 0.483 -3.104 0.511 -3.04 0.554 -2.969 0.59 -2.898 0.625 -2.82 0.661 -2.742 0.696 -2.663 0.717 -2.578 0.76 -2.486 0.781 -2.401 0.81 -2.308 0.831 -2.209 0.859 -2.117 0.881 -2.017 0.902 -1.918 0.916 -1.811 0.938 -1.712 0.952 -1.612 0.966 -1.499 0.98 -1.399 0.987 -1.286 1.001 -1.186 1.001 -1.072 1.009 -0.966 1.016 -0.859 1.016 -0.753 1.016 -0.646 1.009 -0.54 1.016 -0.44 1.001 -0.327 1.001 -0.234 0.987 -0.128 0.987 -0.021 0.966 0.064 0.959 0.17 0.945 0.263 0.923 0.348 0.916 0.44 0.888 0.533 0.874 0.611 0.852 0.696 0.831 0.774 0.81 0.852 0.781 0.923 0.76 0.994 0.732 1.058 0.703 1.122 0.675 1.179 0.653 1.236 0.618 1.286 0.582 1.335 0.561 1.385 0.526 1.421 0.49 1.456 0.462 1.492 0.433 1.52 0.398 1.541 0.362 1.57 0.327 1.577 0.298 1.598 0.263 1.598 0.234 1.605 0.199 1.612 0.163 1.605 0.128 1.598 0.107 1.584 0.064 1.57 0.036 1.548 0.007 1.534 -0.021 1.499 -0.057 1.477 -0.078 1.442 -0.114 1.399 -0.135 1.371 -0.163 1.321 -0.192 1.271 -0.213 1.229 -0.234 1.172 -0.263 1.122 -0.277 1.058 -0.298 1.009 -0.32 0.938 -0.341 0.881 -0.355 0.81 -0.362 0.746 -0.384 0.675 -0.398 0.597 -0.405 0.533 -0.412 0.462 -0.426 0.376 -0.426 0.313 -0.433 0.227 -0.44 0.156 -0.44 0.078h-0.44l-0.44 -0.078 -0.44 -0.156 -0.433 -0.227 -0.426 -0.313 -0.426 -0.376 -0.412 -0.462 -0.405 -0.533 -0.398 -0.597 -0.384 -0.675 -0.362 -0.746 -0.355 -0.81 -0.341 -0.881 -0.32 -0.938 -0.298 -1.009 -0.277 -1.058 -0.263 -1.122 -0.234 -1.172 -0.213 -1.229 -0.192 -1.271 -0.163 -1.321 -0.135 -1.371 -0.114 -1.399 -0.078 -1.442 -0.057 -1.477 -0.021 -1.499 0.007 -1.534 0.036 -1.548 0.064 -1.57 0.107 -1.584 0.128 -1.598 0.163 -1.605 0.199 -1.612 0.234 -1.605 0.263 -1.598 0.298 -1.598 0.327 -1.577 0.362 -1.57 0.398 -1.541 0.433 -1.52 0.462 -1.492 0.49 -1.456 0.526 -1.421 0.561 -1.385 0.582 -1.335 0.618 -1.286 0.653 -1.236 0.675 -1.179 0.703 -1.122 0.732 -1.058 0.76 -0.994 0.781 -0.923 0.81 -0.852 0.831 -0.774 0.852 -0.696 0.874 -0.611 0.888 -0.533 0.916 -0.44 0.923 -0.348 0.945 -0.263 0.959 -0.17 0.966 -0.064 0.987 0.021 0.987 0.128 1.001 0.234 1.001 0.327 1.016 0.44 1.009 0.54 1.016 0.646 1.016 0.753 1.016 0.859 1.009 0.966 1.001 1.072 1.001 1.186 0.987 1.286 0.98 1.399 0.966 1.499 0.952 1.612 0.938 1.712 0.916 1.811 0.902 1.918 0.881 2.017 0.859 2.117 0.831 2.209 0.81 2.308 0.781 2.401 0.76 2.486 0.717 2.578 0.696 2.663 0.661 2.742 0.625 2.82 0.59 2.898 0.554 2.969 0.511 3.04 0.483 3.104 0.433 3.161 0.398 3.225 0.348 3.274 0.313 3.324 0.263 3.374 0.22 3.409 0.178 3.445 0.128 3.48 0.078 3.502 0.036 3.53 -0.014 3.551 -0.057 3.558 -0.114 3.565 -0.156 3.573 -0.213 3.573 -0.256 3.565 -0.305 3.558 -0.355 3.537 -0.405 3.516 -0.455 3.494 -0.497 3.459 -0.554 3.431 -0.597 3.381 -0.646 3.345 -0.689 3.296 -0.739 3.232 -0.781 3.182 -0.824 3.118 -0.874 3.047 -0.909 2.976 -0.959 2.898 -0.994 2.82 -1.03 2.734 -1.072 2.642 -1.115 2.557 -1.144 2.457 -1.179 2.351 -1.215 2.259 -1.243 2.145 -1.271 2.038 -1.307 1.925 -1.328 1.811 -1.357 1.69 -1.378 1.577 -1.399 1.449 -1.421 1.321 -1.435 1.2 -1.456 1.065 -1.463 0.938 -1.484 0.81 -1.492 0.675 -1.499 0.54 -1.506 0.405 -1.513 0.27 -1.513 0.135h-1.52l-1.513 -0.135 -1.513 -0.27 -1.506 -0.405 -1.499 -0.54 -1.492 -0.675 -1.484 -0.81 -1.463 -0.938 -1.456 -1.065 -1.435 -1.2 -1.421 -1.321 -1.399 -1.449 -1.378 -1.577 -1.357 -1.69 -1.328 -1.811 -1.307 -1.925 -1.271 -2.038 -1.243 -2.145 -1.215 -2.259 -1.179 -2.351 -1.144 -2.457 -1.115 -2.557 -1.072 -2.642 -1.03 -2.734 -0.994 -2.82 -0.959 -2.898 -0.909 -2.976 -0.874 -3.047 -0.824 -3.118 -0.781 -3.182 -0.739 -3.232 -0.689 -3.296 -0.646 -3.345 -0.597 -3.381 -0.554 -3.431 -0.497 -3.459 -0.455 -3.494 -0.405 -3.516" fill="none" stroke="black" stroke-width="1.4205103591712662"/>
  </g>
</svg>
