<?xml version="1.0" ?>
<svg xmlns="http://www.w3.org/2000/svg" width="200" height="200" viewBox="-100 -120 200 240">
  <g transform="translate(0, 40) scale(0.8, 0.7)">
    <path d="M -36.77,0.00 L -36.74,-6.16 L -36.64,-12.31 L -36.48,-18.43 L -36.25,-24.53 L -35.97,-30.58 L -35.61,-36.58 L -35.20,-42.51 L -34.72,-48.37 L -34.19,-54.14 L -33.59,-59.82 L -32.93,-65.40 L -32.22,-70.86 L -31.45,-76.19 L -30.63,-81.39 L -29.75,-86.45 L -28.82,-91.36 L -27.83,-96.10 L -26.80,-100.68 L -25.73,-105.08 L -24.60,-109.30 L -23.44,-113.33 L -22.23,-117.15 L -20.98,-120.77 L -19.70,-124.18 L -18.38,-127.37 L -17.04,-130.34 L -15.66,-133.08 L -14.25,-135.59 L -12.82,-137.85 L -11.36,-139.88 L -9.89,-141.66 L -8.40,-143.19 L -6.89,-144.47 L -5.37,-145.50 L -3.84,-146.27 L -2.31,-146.79 L -0.77,-147.05 L 0.77,-147.05 L 2.31,-146.79 L 3.84,-146.27 L 5.37,-145.50 L 6.89,-144.47 L 8.40,-143.19 L 9.89,-141.66 L 11.36,-139.88 L 12.82,-137.85 L 14.25,-135.59 L 15.66,-133.08 L 17.04,-130.34 L 18.38,-127.37 L 19.70,-124.18 L 20.98,-120.77 L 22.23,-117.15 L 23.44,-113.33 L 24.60,-109.30 L 25.73,-105.08 L 26.80,-100.68 L 27.83,-96.10 L 28.82,-91.36 L 29.75,-86.45 L 30.63,-81.39 L 31.45,-76.19 L 32.22,-70.86 L 32.93,-65.40 L 33.59,-59.82 L 34.19,-54.14 L 34.72,-48.37 L 35.20,-42.51 L 35.61,-36.58 L 35.97,-30.58 L 36.25,-24.53 L 36.48,-18.43 L 36.64,-12.31 L 36.74,-6.16 L 36.77,-0.00 L 36.74,6.16 L 36.64,12.31 L 36.48,18.43 L 36.25,24.53 L 35.97,30.58 L 35.61,36.58 L 35.20,42.51 L 34.72,48.37 L 34.19,54.14 L 33.59,59.82 L 32.93,65.40 L 32.22,70.86 L 31.45,76.19 L 30.63,81.39 L 29.75,86.45 L 28.82,91.36 L 27.83,96.10 L 26.80,100.68 L 25.73,105.08 L 24.60,109.30 L 23.44,113.33 L 22.23,117.15 L 20.98,120.77 L 19.70,124.18 L 18.38,127.37 L 17.04,130.34 L 15.66,133.08 L 14.25,135.59 L 12.82,137.85 L 11.36,139.88 L 9.89,141.66 L 8.40,143.19 L 6.89,144.47 L 5.37,145.50 L 3.84,146.27 L 2.31,146.79 L 0.77,147.05 L -0.77,147.05 L -2.31,146.79 L -3.84,146.27 L -5.37,145.50 L -6.89,144.47 L -8.40,143.19 L -9.89,141.66 L -11.36,139.88 L -12.82,137.85 L -14.25,135.59 L -15.66,133.08 L -17.04,130.34 L -18.38,127.37 L -19.70,124.18 L -20.98,120.77 L -22.23,117.15 L -23.44,113.33 L -24.60,109.30 L -25.73,105.08 L -26.80,100.68 L -27.83,96.10 L -28.82,91.36 L -29.75,86.45 L -30.63,81.39 L -31.45,76.19 L -32.22,70.86 L -32.93,65.40 L -33.59,59.82 L -34.19,54.14 L -34.72,48.37 L -35.20,42.51 L -35.61,36.58 L -35.97,30.58 L -36.25,24.53 L -36.48,18.43 L -36.64,12.31 L -36.74,6.16 L -36.77,0.00 L -36.74,-6.16 L -36.64,-12.31 L -36.48,-18.43 L -36.25,-24.53 L -35.97,-30.58 L -35.61,-36.58 L -35.20,-42.51 L -34.72,-48.37 L -34.19,-54.14 L -33.59,-59.82 L -32.93,-65.40 L -32.22,-70.86 L -31.45,-76.19 L -30.63,-81.39 L -29.75,-86.45 L -28.82,-91.36 L -27.83,-96.10 L -26.80,-100.68 L -25.73,-105.08 L -24.60,-109.30 L -23.44,-113.33 L -22.23,-117.15 L -20.98,-120.77 L -19.70,-124.18 L -18.38,-127.37 L -17.04,-130.34 L -15.66,-133.08 L -14.25,-135.59 L -12.82,-137.85 L -11.36,-139.88 L -9.89,-141.66 L -8.40,-143.19 L -6.89,-144.47 L -5.37,-145.50 L -3.84,-146.27 L -2.31,-146.79 L -0.77,-147.05 L 0.77,-147.05 L 2.31,-146.79 L 3.84,-146.27 L 5.37,-145.50 L 6.89,-144.47 L 8.40,-143.19 L 9.89,-141.66 L 11.36,-139.88 L 12.82,-137.85 L 14.25,-135.59 L 15.66,-133.08 L 17.04,-130.34 L 18.38,-127.37 L 19.70,-124.18 L 20.98,-120.77 L 22.23,-117.15 L 23.44,-113.33 L 24.60,-109.30 L 25.73,-105.08 L 26.80,-100.68 L 27.83,-96.10 L 28.82,-91.36 L 29.75,-86.45 L 30.63,-81.39 L 31.45,-76.19 L 32.22,-70.86 L 32.93,-65.40 L 33.59,-59.82 L 34.19,-54.14 L 34.72,-48.37 L 35.20,-42.51 L 35.61,-36.58 L 35.97,-30.58 L 36.25,-24.53 L 36.48,-18.43 L 36.64,-12.31 L 36.74,-6.16 L 36.77,-0.00 L 36.74,6.16 L 36.64,12.31 L 36.48,18.43 L 36.25,24.53 L 35.97,30.58 L 35.61,36.58 L 35.20,42.51 L 34.72,48.37 L 34.19,54.14 L 33.59,59.82 L 32.93,65.40 L 32.22,70.86 L 31.45,76.19 L 30.63,81.39 L 29.75,86.45 L 28.82,91.36 L 27.83,96.10 L 26.80,100.68 L 25.73,105.08 L 24.60,109.30 L 23.44,113.33 L 22.23,117.15 L 20.98,120.77 L 19.70,124.18 L 18.38,127.37 L 17.04,130.34 L 15.66,133.08 L 14.25,135.59 L 12.82,137.85 L 11.36,139.88 L 9.89,141.66 L 8.40,143.19 L 6.89,144.47 L 5.37,145.50 L 3.84,146.27 L 2.31,146.79 L 0.77,147.05 L -0.77,147.05 L -2.31,146.79 L -3.84,146.27 L -5.37,145.50 L -6.89,144.47 L -8.40,143.19 L -9.89,141.66 L -11.36,139.88 L -12.82,137.85 L -14.25,135.59 L -15.66,133.08 L -17.04,130.34 L -18.38,127.37 L -19.70,124.18 L -20.98,120.77 L -22.23,117.15 L -23.44,113.33 L -24.60,109.30 L -25.73,105.08 L -26.80,100.68 L -27.83,96.10 L -28.82,91.36 L -29.75,86.45 L -30.63,81.39 L -31.45,76.19 L -32.22,70.86 L -32.93,65.40 L -33.59,59.82 L -34.19,54.14 L -34.72,48.37 L -35.20,42.51 L -35.61,36.58 L -35.97,30.58 L -36.25,24.53 L -36.48,18.43 L -36.64,12.31 L -36.74,6.16 L -36.77,0.00" fill="none" stroke="black" stroke-width="2"/>
  </g>
</svg>
