<?xml version="1.0" ?>
<svg xmlns="http://www.w3.org/2000/svg" width="200" height="200" viewBox="-100 -120 200 240">
  <g transform="translate(0, 35) scale(1, 1)">
    <path d="M -68.99,0.00 L -68.93,-3.28 L -68.74,-6.56 L -68.44,-9.83 L -68.02,-13.07 L -67.48,-16.30 L -66.82,-19.50 L -66.04,-22.66 L -65.15,-25.78 L -64.14,-28.86 L -63.02,-31.89 L -61.79,-34.86 L -60.45,-37.77 L -59.01,-40.61 L -57.46,-43.38 L -55.81,-46.08 L -54.06,-48.69 L -52.22,-51.22 L -50.29,-53.66 L -48.27,-56.01 L -46.16,-58.26 L -43.97,-60.40 L -41.71,-62.44 L -39.37,-64.37 L -36.96,-66.19 L -34.49,-67.89 L -31.96,-69.47 L -29.37,-70.93 L -26.73,-72.27 L -24.05,-73.48 L -21.32,-74.56 L -18.55,-75.51 L -15.75,-76.32 L -12.93,-77.00 L -10.08,-77.55 L -7.21,-77.96 L -4.33,-78.24 L -1.44,-78.38 L 1.44,-78.38 L 4.33,-78.24 L 7.21,-77.96 L 10.08,-77.55 L 12.93,-77.00 L 15.75,-76.32 L 18.55,-75.51 L 21.32,-74.56 L 24.05,-73.48 L 26.73,-72.27 L 29.37,-70.93 L 31.96,-69.47 L 34.49,-67.89 L 36.96,-66.19 L 39.37,-64.37 L 41.71,-62.44 L 43.97,-60.40 L 46.16,-58.26 L 48.27,-56.01 L 50.29,-53.66 L 52.22,-51.22 L 54.06,-48.69 L 55.81,-46.08 L 57.46,-43.38 L 59.01,-40.61 L 60.45,-37.77 L 61.79,-34.86 L 63.02,-31.89 L 64.14,-28.86 L 65.15,-25.78 L 66.04,-22.66 L 66.82,-19.50 L 67.48,-16.30 L 68.02,-13.07 L 68.44,-9.83 L 68.74,-6.56 L 68.93,-3.28 L 68.99,-0.00 L 68.93,3.28 L 68.74,6.56 L 68.44,9.83 L 68.02,13.07 L 67.48,16.30 L 66.82,19.50 L 66.04,22.66 L 65.15,25.78 L 64.14,28.86 L 63.02,31.89 L 61.79,34.86 L 60.45,37.77 L 59.01,40.61 L 57.46,43.38 L 55.81,46.08 L 54.06,48.69 L 52.22,51.22 L 50.29,53.66 L 48.27,56.01 L 46.16,58.26 L 43.97,60.40 L 41.71,62.44 L 39.37,64.37 L 36.96,66.19 L 34.49,67.89 L 31.96,69.47 L 29.37,70.93 L 26.73,72.27 L 24.05,73.48 L 21.32,74.56 L 18.55,75.51 L 15.75,76.32 L 12.93,77.00 L 10.08,77.55 L 7.21,77.96 L 4.33,78.24 L 1.44,78.38 L -1.44,78.38 L -4.33,78.24 L -7.21,77.96 L -10.08,77.55 L -12.93,77.00 L -15.75,76.32 L -18.55,75.51 L -21.32,74.56 L -24.05,73.48 L -26.73,72.27 L -29.37,70.93 L -31.96,69.47 L -34.49,67.89 L -36.96,66.19 L -39.37,64.37 L -41.71,62.44 L -43.97,60.40 L -46.16,58.26 L -48.27,56.01 L -50.29,53.66 L -52.22,51.22 L -54.06,48.69 L -55.81,46.08 L -57.46,43.38 L -59.01,40.61 L -60.45,37.77 L -61.79,34.86 L -63.02,31.89 L -64.14,28.86 L -65.15,25.78 L -66.04,22.66 L -66.82,19.50 L -67.48,16.30 L -68.02,13.07 L -68.44,9.83 L -68.74,6.56 L -68.93,3.28 L -68.99,0.00 L -68.93,-3.28 L -68.74,-6.56 L -68.44,-9.83 L -68.02,-13.07 L -67.48,-16.30 L -66.82,-19.50 L -66.04,-22.66 L -65.15,-25.78 L -64.14,-28.86 L -63.02,-31.89 L -61.79,-34.86 L -60.45,-37.77 L -59.01,-40.61 L -57.46,-43.38 L -55.81,-46.08 L -54.06,-48.69 L -52.22,-51.22 L -50.29,-53.66 L -48.27,-56.01 L -46.16,-58.26 L -43.97,-60.40 L -41.71,-62.44 L -39.37,-64.37 L -36.96,-66.19 L -34.49,-67.89 L -31.96,-69.47 L -29.37,-70.93 L -26.73,-72.27 L -24.05,-73.48 L -21.32,-74.56 L -18.55,-75.51 L -15.75,-76.32 L -12.93,-77.00 L -10.08,-77.55 L -7.21,-77.96 L -4.33,-78.24 L -1.44,-78.38 L 1.44,-78.38 L 4.33,-78.24 L 7.21,-77.96 L 10.08,-77.55 L 12.93,-77.00 L 15.75,-76.32 L 18.55,-75.51 L 21.32,-74.56 L 24.05,-73.48 L 26.73,-72.27 L 29.37,-70.93 L 31.96,-69.47 L 34.49,-67.89 L 36.96,-66.19 L 39.37,-64.37 L 41.71,-62.44 L 43.97,-60.40 L 46.16,-58.26 L 48.27,-56.01 L 50.29,-53.66 L 52.22,-51.22 L 54.06,-48.69 L 55.81,-46.08 L 57.46,-43.38 L 59.01,-40.61 L 60.45,-37.77 L 61.79,-34.86 L 63.02,-31.89 L 64.14,-28.86 L 65.15,-25.78 L 66.04,-22.66 L 66.82,-19.50 L 67.48,-16.30 L 68.02,-13.07 L 68.44,-9.83 L 68.74,-6.56 L 68.93,-3.28 L 68.99,-0.00 L 68.93,3.28 L 68.74,6.56 L 68.44,9.83 L 68.02,13.07 L 67.48,16.30 L 66.82,19.50 L 66.04,22.66 L 65.15,25.78 L 64.14,28.86 L 63.02,31.89 L 61.79,34.86 L 60.45,37.77 L 59.01,40.61 L 57.46,43.38 L 55.81,46.08 L 54.06,48.69 L 52.22,51.22 L 50.29,53.66 L 48.27,56.01 L 46.16,58.26 L 43.97,60.40 L 41.71,62.44 L 39.37,64.37 L 36.96,66.19 L 34.49,67.89 L 31.96,69.47 L 29.37,70.93 L 26.73,72.27 L 24.05,73.48 L 21.32,74.56 L 18.55,75.51 L 15.75,76.32 L 12.93,77.00 L 10.08,77.55 L 7.21,77.96 L 4.33,78.24 L 1.44,78.38 L -1.44,78.38 L -4.33,78.24 L -7.21,77.96 L -10.08,77.55 L -12.93,77.00 L -15.75,76.32 L -18.55,75.51 L -21.32,74.56 L -24.05,73.48 L -26.73,72.27 L -29.37,70.93 L -31.96,69.47 L -34.49,67.89 L -36.96,66.19 L -39.37,64.37 L -41.71,62.44 L -43.97,60.40 L -46.16,58.26 L -48.27,56.01 L -50.29,53.66 L -52.22,51.22 L -54.06,48.69 L -55.81,46.08 L -57.46,43.38 L -59.01,40.61 L -60.45,37.77 L -61.79,34.86 L -63.02,31.89 L -64.14,28.86 L -65.15,25.78 L -66.04,22.66 L -66.82,19.50 L -67.48,16.30 L -68.02,13.07 L -68.44,9.83 L -68.74,6.56 L -68.93,3.28 L -68.99,0.00" fill="none" stroke="black" stroke-width="2"/>
  </g>
</svg>
