<?xml version="1.0" ?>
<svg xmlns="http://www.w3.org/2000/svg" width="200" height="200" viewBox="-100 -120 200 240">
  <g transform="translate(0, 50) scale(0.65, 0.65)">
    <path d="M -0.00,146.45 L -6.12,146.07 L -12.13,144.92 L -17.93,143.05 L -23.43,140.49 L -28.55,137.31 L -33.22,133.59 L -37.40,129.39 L -41.04,124.81 L -44.14,119.92 L -46.69,114.80 L -48.70,109.52 L -50.18,104.16 L -51.16,98.76 L -51.68,93.38 L -51.76,88.06 L -51.44,82.82 L -50.76,77.69 L -49.76,72.69 L -48.47,67.84 L -46.91,63.13 L -45.13,58.58 L -43.15,54.17 L -40.99,49.92 L -38.68,45.81 L -36.24,41.84 L -33.68,38.00 L -31.02,34.29 L -28.28,30.68 L -25.47,27.18 L -22.60,23.76 L -19.68,20.43 L -16.71,17.17 L -13.72,13.97 L -10.70,10.81 L -7.65,7.70 L -4.60,4.61 L -1.53,1.53 L 1.53,-1.53 L 4.60,-4.61 L 7.65,-7.70 L 10.70,-10.81 L 13.72,-13.97 L 16.71,-17.17 L 19.68,-20.43 L 22.60,-23.76 L 25.47,-27.18 L 28.28,-30.68 L 31.02,-34.29 L 33.68,-38.00 L 36.24,-41.84 L 38.68,-45.81 L 40.99,-49.92 L 43.15,-54.17 L 45.13,-58.58 L 46.91,-63.13 L 48.47,-67.84 L 49.76,-72.69 L 50.76,-77.69 L 51.44,-82.82 L 51.76,-88.06 L 51.68,-93.38 L 51.16,-98.76 L 50.18,-104.16 L 48.70,-109.52 L 46.69,-114.80 L 44.14,-119.92 L 41.04,-124.81 L 37.40,-129.39 L 33.22,-133.59 L 28.55,-137.31 L 23.43,-140.49 L 17.93,-143.05 L 12.13,-144.92 L 6.12,-146.06 L 0.00,-146.45 L -6.12,-146.06 L -12.13,-144.92 L -17.93,-143.05 L -23.43,-140.49 L -28.55,-137.31 L -33.22,-133.59 L -37.40,-129.39 L -41.04,-124.81 L -44.14,-119.92 L -46.69,-114.80 L -48.70,-109.52 L -50.18,-104.16 L -51.16,-98.76 L -51.68,-93.38 L -51.76,-88.06 L -51.44,-82.82 L -50.76,-77.69 L -49.76,-72.69 L -48.47,-67.84 L -46.91,-63.13 L -45.13,-58.58 L -43.15,-54.17 L -40.99,-49.92 L -38.68,-45.81 L -36.24,-41.84 L -33.68,-38.00 L -31.02,-34.29 L -28.28,-30.68 L -25.47,-27.18 L -22.60,-23.76 L -19.68,-20.43 L -16.71,-17.17 L -13.72,-13.97 L -10.70,-10.81 L -7.65,-7.70 L -4.60,-4.61 L -1.53,-1.53 L 1.53,1.53 L 4.60,4.61 L 7.65,7.70 L 10.70,10.81 L 13.72,13.97 L 16.71,17.17 L 19.68,20.43 L 22.60,23.76 L 25.47,27.18 L 28.28,30.68 L 31.02,34.29 L 33.68,38.00 L 36.24,41.84 L 38.68,45.81 L 40.99,49.92 L 43.15,54.17 L 45.13,58.58 L 46.91,63.13 L 48.47,67.84 L 49.76,72.69 L 50.76,77.69 L 51.44,82.82 L 51.76,88.06 L 51.68,93.38 L 51.16,98.76 L 50.18,104.16 L 48.70,109.52 L 46.69,114.80 L 44.14,119.92 L 41.04,124.81 L 37.40,129.39 L 33.22,133.59 L 28.55,137.31 L 23.43,140.49 L 17.93,143.05 L 12.13,144.92 L 6.12,146.07 L 0.00,146.45 L -6.12,146.07 L -12.13,144.92 L -17.93,143.05 L -23.43,140.49 L -28.55,137.31 L -33.22,133.59 L -37.40,129.39 L -41.04,124.81 L -44.14,119.92 L -46.69,114.80 L -48.70,109.52 L -50.18,104.16 L -51.16,98.76 L -51.68,93.38 L -51.76,88.06 L -51.44,82.82 L -50.76,77.69 L -49.76,72.69 L -48.47,67.84 L -46.91,63.13 L -45.13,58.58 L -43.15,54.17 L -40.99,49.92 L -38.68,45.81 L -36.24,41.84 L -33.68,38.00 L -31.02,34.29 L -28.28,30.68 L -25.47,27.18 L -22.60,23.76 L -19.68,20.43 L -16.71,17.17 L -13.72,13.97 L -10.70,10.81 L -7.65,7.70 L -4.60,4.61 L -1.53,1.53 L 1.53,-1.53 L 4.60,-4.61 L 7.65,-7.70 L 10.70,-10.81 L 13.72,-13.97 L 16.71,-17.17 L 19.68,-20.43 L 22.60,-23.76 L 25.47,-27.18 L 28.28,-30.68 L 31.02,-34.29 L 33.68,-38.00 L 36.24,-41.84 L 38.68,-45.81 L 40.99,-49.92 L 43.15,-54.17 L 45.13,-58.58 L 46.91,-63.13 L 48.47,-67.84 L 49.76,-72.69 L 50.76,-77.69 L 51.44,-82.82 L 51.76,-88.06 L 51.68,-93.38 L 51.16,-98.76 L 50.18,-104.16 L 48.70,-109.52 L 46.69,-114.80 L 44.14,-119.92 L 41.04,-124.81 L 37.40,-129.39 L 33.22,-133.59 L 28.55,-137.31 L 23.43,-140.49 L 17.93,-143.05 L 12.13,-144.92 L 6.12,-146.06 L 0.00,-146.45 L -6.12,-146.06 L -12.13,-144.92 L -17.93,-143.05 L -23.43,-140.49 L -28.55,-137.31 L -33.22,-133.59 L -37.40,-129.39 L -41.04,-124.81 L -44.14,-119.92 L -46.69,-114.80 L -48.70,-109.52 L -50.18,-104.16 L -51.16,-98.76 L -51.68,-93.38 L -51.76,-88.06 L -51.44,-82.82 L -50.76,-77.69 L -49.76,-72.69 L -48.47,-67.84 L -46.91,-63.13 L -45.13,-58.58 L -43.15,-54.17 L -40.99,-49.92 L -38.68,-45.81 L -36.24,-41.84 L -33.68,-38.00 L -31.02,-34.29 L -28.28,-30.68 L -25.47,-27.18 L -22.60,-23.76 L -19.68,-20.43 L -16.71,-17.17 L -13.72,-13.97 L -10.70,-10.81 L -7.65,-7.70 L -4.60,-4.61 L -1.53,-1.53 L 1.53,1.53 L 4.60,4.61 L 7.65,7.70 L 10.70,10.81 L 13.72,13.97 L 16.71,17.17 L 19.68,20.43 L 22.60,23.76 L 25.47,27.18 L 28.28,30.68 L 31.02,34.29 L 33.68,38.00 L 36.24,41.84 L 38.68,45.81 L 40.99,49.92 L 43.15,54.17 L 45.13,58.58 L 46.91,63.13 L 48.47,67.84 L 49.76,72.69 L 50.76,77.69 L 51.44,82.82 L 51.76,88.06 L 51.68,93.38 L 51.16,98.76 L 50.18,104.16 L 48.70,109.52 L 46.69,114.80 L 44.14,119.92 L 41.04,124.81 L 37.40,129.39 L 33.22,133.59 L 28.55,137.31 L 23.43,140.49 L 17.93,143.05 L 12.13,144.92 L 6.12,146.07 L 0.00,146.45" fill="none" stroke="black" stroke-width="2"/>
  </g>
</svg>
